<svg xmlns="http://www.w3.org/2000/svg" xmlns:xlink="http://www.w3.org/1999/xlink" xmlns:serif="http://www.serif.com/" viewBox="0 0 101 126.25" version="1.1" xml:space="preserve" style="" x="0px" y="0px" fill-rule="evenodd" clip-rule="evenodd" stroke-linejoin="round" stroke-miterlimit="2"><rect serif:id="Page 45" x="0.862" y="0.447" width="100" height="100" style="" fill="none"/><path d="M8.04,55.205l2.441,-0c-0.174,-1.564 -0.262,-3.151 -0.262,-4.758c-0,-1.608 0.088,-3.196 0.263,-4.758l-4.62,-0c0.365,-3.299 1.106,-6.486 2.178,-9.516l2.179,-0c1.199,-3.388 2.812,-6.58 4.779,-9.516l0.028,-0.042c2.402,-3.576 5.328,-6.771 8.669,-9.474l-4.78,0c7.353,-5.95 16.716,-9.516 26.904,-9.516c10.189,0 19.551,3.566 26.904,9.516l4.78,0c3.354,2.714 6.29,5.923 8.697,9.516l0.023,0.034c1.957,2.927 3.563,6.108 4.756,9.482l-2.178,-0c1.073,3.03 1.814,6.216 2.178,9.516l4.62,-0c0.174,1.562 0.263,3.15 0.263,4.758c-0,1.607 -0.089,3.194 -0.263,4.758l-2.441,-0c-0.365,3.299 -1.106,6.486 -2.178,9.516c-1.199,3.388 -2.813,6.581 -4.78,9.516l-4.78,-0c-2.407,3.593 -5.344,6.803 -8.697,9.516l4.78,-0c-7.353,5.949 -16.715,9.515 -26.904,9.515c-10.189,0 -19.551,-3.566 -26.904,-9.515l-4.78,-0c-3.354,-2.714 -6.29,-5.923 -8.697,-9.516l4.78,-0c-1.967,-2.936 -3.581,-6.128 -4.78,-9.516c-1.073,-3.031 -1.813,-6.218 -2.178,-9.516Zm80.381,-0l-2.441,-0c-0.438,3.339 -1.338,6.533 -2.634,9.516c-1.519,3.497 -3.583,6.705 -6.083,9.516l-4.78,-0c-3.7,4.157 -8.356,7.444 -13.621,9.516l4.78,-0c-4.04,1.589 -8.44,2.462 -13.043,2.462c-4.603,0 -9.003,-0.873 -13.043,-2.462l-4.78,-0c-5.266,-2.072 -9.922,-5.359 -13.62,-9.516l4.779,-0c-2.5,-2.81 -4.564,-6.018 -6.083,-9.516l-0.003,-0.007c-0.224,-0.515 -0.436,-1.036 -0.635,-1.562c-0.394,-1.041 -0.739,-2.101 -1.034,-3.175c-0.283,-1.033 -0.519,-2.079 -0.708,-3.133c-0.095,-0.533 -0.178,-1.068 -0.249,-1.604l-0.005,-0.035l2.442,-0l-0.003,-0.021c-0.082,-0.635 -0.149,-1.271 -0.197,-1.91c-0.113,-1.485 -0.134,-2.977 -0.064,-4.465c0.05,-1.036 0.145,-2.071 0.283,-3.099l0.003,-0.021l-4.62,-0c0.454,-3.341 1.371,-6.535 2.684,-9.516l2.179,-0c1.537,-3.489 3.616,-6.685 6.131,-9.483l0.029,-0.033l0.032,-0.036c0.683,-0.754 1.396,-1.48 2.139,-2.174c1.385,-1.292 2.871,-2.475 4.442,-3.533c1.46,-0.984 2.993,-1.86 4.582,-2.617c0.883,-0.421 1.783,-0.804 2.697,-1.151l0.013,-0.005l-4.78,0l0.038,-0.014c0.7,-0.263 1.407,-0.505 2.122,-0.724c1.339,-0.41 2.703,-0.741 4.081,-0.99c2.1,-0.379 4.234,-0.567 6.368,-0.567c1.65,-0 3.299,0.112 4.932,0.339c1.65,0.228 3.284,0.573 4.886,1.031c0.93,0.265 1.848,0.57 2.753,0.911l0.039,0.014l4.78,0c5.351,2.024 10.09,5.299 13.86,9.467l0.044,0.049c2.527,2.805 4.617,6.013 6.16,9.516l-2.178,-0c1.313,2.981 2.23,6.175 2.684,9.516l4.62,-0l0.002,0.021c0.139,1.028 0.234,2.063 0.283,3.099c0.071,1.488 0.05,2.98 -0.063,4.465c-0.049,0.639 -0.115,1.275 -0.197,1.91l-0.003,0.021Z"/><text x="0" y="116" fill="#000000" font-size="5px" font-weight="bold" font-family="'Helvetica Neue', Helvetica, Arial-Unicode, Arial, Sans-serif">Created by Zach Bogart</text><text x="0" y="121" fill="#000000" font-size="5px" font-weight="bold" font-family="'Helvetica Neue', Helvetica, Arial-Unicode, Arial, Sans-serif">from the Noun Project</text></svg>