<svg xmlns="http://www.w3.org/2000/svg" xmlns:xlink="http://www.w3.org/1999/xlink" version="1.1" x="0px" y="0px" viewBox="0 0 99 123.75" style="enable-background:new 0 0 99 99;" xml:space="preserve"><path d="M17.63,76.65c3.36,0.62,3.87,1.12,4.49,4.49c0.62-3.36,1.12-3.87,4.49-4.49c-3.36-0.62-3.87-1.12-4.49-4.49  C21.5,75.53,21,76.03,17.63,76.65z"/><path d="M30.36,81.14c1.83,0.34,2.11,0.61,2.45,2.45c0.34-1.83,0.61-2.11,2.45-2.45c-1.83-0.34-2.11-0.61-2.45-2.45  C32.47,80.52,32.19,80.8,30.36,81.14z"/><path d="M70.85,60.11c3.36,0.62,3.87,1.12,4.49,4.49c0.62-3.36,1.12-3.87,4.49-4.49c-3.36-0.62-3.87-1.12-4.49-4.49  C74.72,58.99,74.22,59.49,70.85,60.11z"/><path d="M80.46,65.51c2.02,0.37,2.33,0.67,2.7,2.7c0.37-2.02,0.67-2.33,2.7-2.7c-2.02-0.37-2.33-0.67-2.7-2.7  C82.79,64.83,82.49,65.14,80.46,65.51z"/><path d="M77.63,28.13c2.02,0.37,2.33,0.67,2.7,2.7c0.37-2.02,0.67-2.33,2.7-2.7c-2.02-0.37-2.33-0.67-2.7-2.7  C79.96,27.46,79.66,27.76,77.63,28.13z"/><path d="M76.57,17.32c2.02,0.37,2.33,0.67,2.7,2.7c0.37-2.02,0.67-2.33,2.7-2.7c-2.02-0.37-2.33-0.67-2.7-2.7  C78.9,16.64,78.6,16.94,76.57,17.32z"/><path d="M19.42,24.24c2.02,0.37,2.33,0.67,2.7,2.7c0.37-2.02,0.67-2.33,2.7-2.7c-2.02-0.37-2.33-0.67-2.7-2.7  C21.74,23.56,21.44,23.86,19.42,24.24z"/><path d="M39.46,18.12c2.02,0.37,2.33,0.67,2.7,2.7c0.37-2.02,0.67-2.33,2.7-2.7c-2.02-0.37-2.33-0.67-2.7-2.7  C41.78,17.44,41.48,17.75,39.46,18.12z"/><path d="M62,69.47c2.02,0.37,2.33,0.67,2.7,2.7c0.37-2.02,0.67-2.33,2.7-2.7c-2.02-0.37-2.33-0.67-2.7-2.7  C64.33,68.79,64.03,69.09,62,69.47z"/><path d="M13.93,31.63c2.02,0.37,2.33,0.67,2.7,2.7c0.37-2.02,0.67-2.33,2.7-2.7c-2.02-0.37-2.33-0.67-2.7-2.7  C16.25,30.96,15.95,31.26,13.93,31.63z"/><path d="M11.81,26.23c2.02,0.37,2.33,0.67,2.7,2.7c0.37-2.02,0.67-2.33,2.7-2.7c-2.02-0.37-2.33-0.67-2.7-2.7  C14.14,25.56,13.84,25.86,11.81,26.23z"/><path d="M84.36,23.43c3.15,0.58,3.62,1.05,4.2,4.2c0.58-3.15,1.05-3.62,4.2-4.2c-3.15-0.58-3.62-1.05-4.2-4.2  C87.98,22.38,87.51,22.85,84.36,23.43z"/><path d="M69.13,32.57c-7.49-2.41-18.82-0.12-27.61,5.38c1.65-4.42,6.33-9.01,12.15-11.8c7.35-3.63,15.13-4.05,20.25-1.79  c0.62,0.27,1.62-0.57,1.1-0.93c-6.77-4.66-20.53-3.07-31.23,4.5c-8.42,5.83-13,14.27-11.41,20.57c-4.96-0.97-8.09-4.22-7.97-8.45  c0.02-5.34,4.75-11.21,11.34-15.23c0.8-0.49,0.31-1.19-0.54-0.77c-11.03,5.43-18.21,15.75-15.09,23.37  c2.29,6.01,10.78,8.94,20.55,7.33c-4.71,3.82-11.33,6.4-17.07,6.58c-7.34,0.33-12.2-2.88-13.24-7.61c-0.13-0.57-1.42-0.16-1.43,0.46  c-0.04,8.01,9.27,12.8,21.9,9.94c9.84-2.12,19.66-8.74,24.11-16.04c2.04,3.33,1.09,8.18-2.58,12.52  c-4.55,5.54-12.28,9.43-19.52,10.52c-0.87,0.13-1.19,1.09-0.35,1.05c11-0.48,23.95-7.84,28.62-17.23  c3.79-7.32,1.37-14.34-5.65-17.25c5.98-1.76,12-1.35,15.48,1.16c4.52,3.1,4.61,8.71,1.17,14.12c-0.42,0.66,0.69,0.83,1.22,0.19  C80.19,44.85,78.87,35.51,69.13,32.57z M44.09,50.77c-2.91,0-5.27-2.36-5.27-5.27s2.36-5.27,5.27-5.27c2.91,0,5.27,2.36,5.27,5.27  S47,50.77,44.09,50.77z"/><circle cx="44.09" cy="45.51" r="2.63"/><text x="0" y="114" fill="#000000" font-size="5px" font-weight="bold" font-family="'Helvetica Neue', Helvetica, Arial-Unicode, Arial, Sans-serif">Created by izzul fikry</text><text x="0" y="119" fill="#000000" font-size="5px" font-weight="bold" font-family="'Helvetica Neue', Helvetica, Arial-Unicode, Arial, Sans-serif">from the Noun Project</text></svg>