<svg xmlns="http://www.w3.org/2000/svg" xmlns:xlink="http://www.w3.org/1999/xlink" xmlns:xodm="http://www.corel.com/coreldraw/odm/2003" xml:space="preserve" version="1.1" style="shape-rendering:geometricPrecision;text-rendering:geometricPrecision;image-rendering:optimizeQuality;" viewBox="0 0 8.4666 10.58325" x="0px" y="0px" fill-rule="evenodd" clip-rule="evenodd"><defs><style type="text/css">
   
    .fil0 {fill:black;fill-rule:nonzero}
   
  </style></defs><g><path class="fil0" d="M3.8568 3.2192c0.5077,-0.1846 1.0088,-0.2452 1.4081,-0.1937 0.4279,0.0552 0.7476,0.2401 0.8577,0.543 0.1078,0.3019 -0.0181,0.6471 -0.309,0.9629 -0.2727,0.2961 -0.6957,0.572 -1.2044,0.7571 -0.508,0.1847 -1.0088,0.2452 -1.4079,0.1937 -0.4279,-0.0552 -0.7476,-0.2401 -0.8571,-0.541 -0.1095,-0.3008 0.0165,-0.6478 0.3085,-0.9649 0.2728,-0.2962 0.6959,-0.5721 1.2041,-0.7571zm2.9404 0.5165c0.0682,0.0156 0.1108,0.0836 0.0952,0.1518 -0.0156,0.0682 -0.0836,0.1108 -0.1525,0.0951 -0.0688,-0.0158 -0.1114,-0.0838 -0.0958,-0.152 0.0156,-0.0682 0.0836,-0.1108 0.1531,-0.0949zm-5.1206 1.0378c-0.069,-0.0114 -0.1156,-0.0768 -0.1042,-0.1458 0.0114,-0.069 0.0768,-0.1156 0.1464,-0.1041 0.0696,0.0115 0.1162,0.0769 0.1048,0.1459 -0.0114,0.069 -0.0768,0.1156 -0.147,0.104zm4.988 -2.0766c0.0974,-0.0682 0.2131,-0.0906 0.321,-0.0716 0.1082,0.019 0.2096,0.0799 0.2779,0.1775 0.0682,0.0974 0.0906,0.213 0.0716,0.321 -0.0183,0.104 -0.0751,0.2015 -0.1662,0.2697 -0.007,0.0062 -0.0146,0.0115 -0.0226,0.0159 -0.095,0.0622 -0.206,0.0823 -0.3097,0.064 -0.104,-0.0183 -0.2014,-0.075 -0.2696,-0.1661 -0.0062,-0.007 -0.0115,-0.0146 -0.0159,-0.0226 -0.0623,-0.0951 -0.0823,-0.2062 -0.064,-0.3099 0.019,-0.1082 0.0799,-0.2096 0.1775,-0.2779zm-5.3559 2.4091c0.0974,-0.0682 0.2132,-0.0906 0.3211,-0.0716 0.1082,0.019 0.2096,0.0799 0.2779,0.1775 0.0682,0.0974 0.0906,0.2131 0.0716,0.321 -0.019,0.1082 -0.0799,0.2096 -0.1775,0.2779 -0.0975,0.0683 -0.2133,0.0906 -0.3211,0.0716 -0.1082,-0.0189 -0.2094,-0.0797 -0.2778,-0.1774 -0.0682,-0.0974 -0.0906,-0.2132 -0.0716,-0.3211 0.0189,-0.1081 0.0797,-0.2095 0.1774,-0.2779zm2.7292 -1.3982c0.2452,-0.0886 0.4886,-0.1176 0.6837,-0.0925 0.2244,0.029 0.3936,0.13 0.4539,0.2957 0.0603,0.1658 -0.0043,0.3517 -0.1573,0.5179 -0.1338,0.1452 -0.3401,0.2801 -0.5869,0.3699 -0.2462,0.0895 -0.4908,0.1188 -0.6867,0.0936 -0.2245,-0.029 -0.3937,-0.13 -0.454,-0.2957 -0.0603,-0.1658 0.0043,-0.3517 0.1573,-0.5179 0.1338,-0.1452 0.3402,-0.2801 0.59,-0.371zm-1.7732 2.315c-0.0657,-0.0241 -0.0995,-0.0971 -0.0754,-0.1628 0.0241,-0.0657 0.0971,-0.0995 0.1628,-0.0754 0.4361,0.1597 0.982,0.2071 1.6349,0.1439 0.6655,-0.0644 1.4403,-0.2439 2.3215,-0.5363 0.0663,-0.0219 0.1379,0.0141 0.1598,0.0804 0.0186,0.0563 -0.0046,0.1165 -0.0527,0.1468 -0.2193,0.138 -0.4477,0.2654 -0.6848,0.3811 -0.2362,0.1153 -0.4842,0.2207 -0.7467,0.3163 -1.0609,0.3856 -2.1157,0.4718 -2.949,0.3451 -0.861,-0.1309 -1.4963,-0.4938 -1.6802,-0.9989 -0.2121,-0.5906 0.1738,-1.1174 0.7163,-1.5446 0.5149,-0.4054 1.1717,-0.7212 1.56,-0.9043 0.0632,-0.0298 0.1389,-0.0027 0.1687,0.0605 0.0298,0.0632 0.0027,0.1389 -0.0605,0.1687 -0.3782,0.1783 -1.0176,0.4857 -1.5114,0.8745 -0.4625,0.3642 -0.797,0.7993 -0.6366,1.2538l0.0051 0.0142c0.1539,0.4084 0.7117,0.7088 1.4764,0.8251 0.7961,0.121 1.8059,0.0379 2.8231,-0.3317 0.0775,-0.0281 0.1528,-0.0569 0.2272,-0.0867 -0.398,0.092 -0.7689,0.1547 -1.1124,0.188 -0.6915,0.0669 -1.2746,0.0149 -1.7461,-0.1577zm3.9362 -3.5379c0.0657,0.0238 0.0997,0.0966 0.0759,0.1623 -0.0238,0.0657 -0.0966,0.0997 -0.1623,0.0759 -0.4368,-0.1598 -0.9839,-0.2071 -1.6403,-0.1422 -0.6666,0.0659 -1.4443,0.2478 -2.3322,0.5448 -0.0663,0.0222 -0.1381,-0.0136 -0.1603,-0.0799 -0.0195,-0.0583 0.0058,-0.1208 0.0572,-0.1502 0.2174,-0.1379 0.4481,-0.2673 0.6896,-0.3853 0.2375,-0.116 0.4894,-0.2233 0.7538,-0.3195 1.0566,-0.3845 2.0968,-0.5109 2.9239,-0.4043 0.8555,0.1103 1.4914,0.4712 1.7043,1.0562 0.2147,0.5902 -0.1718,1.1185 -0.7156,1.5467 -0.5148,0.4053 -1.1716,0.7212 -1.56,0.9042 -0.0632,0.0298 -0.1389,0.0027 -0.1687,-0.0605 -0.0298,-0.0632 -0.0027,-0.1389 0.0605,-0.1687 0.3782,-0.1782 1.0175,-0.4856 1.5114,-0.8744 0.4649,-0.3661 0.8005,-0.8038 0.6342,-1.2609 -0.1777,-0.4884 -0.7373,-0.7936 -1.4979,-0.8916 -0.7892,-0.1017 -1.787,0.0208 -2.8057,0.3915 -0.0813,0.0296 -0.1616,0.0604 -0.2409,0.0924 0.4018,-0.0941 0.7757,-0.1583 1.1216,-0.1925 0.695,-0.0688 1.2791,-0.0168 1.7515,0.156zm-0.9678 0.7916c-0.3611,-0.0466 -0.8192,0.01 -1.2891,0.1807 -0.47,0.171 -0.8576,0.4224 -1.1047,0.6907 -0.2276,0.2471 -0.3313,0.5025 -0.2569,0.7069 0.0744,0.2044 0.3177,0.3335 0.6507,0.3764 0.3602,0.0464 0.8169,-0.0097 1.2847,-0.1791l0.0105 -0.0038c0.4668,-0.1706 0.8526,-0.4213 1.0987,-0.6885 0.225,-0.2443 0.3287,-0.4965 0.2593,-0.6996l-0.0053 -0.0146c-0.0775,-0.2002 -0.3189,-0.3267 -0.6479,-0.3691z"/></g><text x="0" y="23.4666" fill="#000000" font-size="5px" font-weight="bold" font-family="'Helvetica Neue', Helvetica, Arial-Unicode, Arial, Sans-serif">Created by Rofidatul Hasanah</text><text x="0" y="28.4666" fill="#000000" font-size="5px" font-weight="bold" font-family="'Helvetica Neue', Helvetica, Arial-Unicode, Arial, Sans-serif">from the Noun Project</text></svg>